<svg width="40" height="36" viewBox="0 0 40 36" fill="none" xmlns="http://www.w3.org/2000/svg">
<path d="M31 12H9V28H31V12Z" fill="white"/>
<path d="M16 4.71423L9 11.7142V27.7142H32V11.7142L25 4.71423" stroke="#222222" stroke-width="1.4" stroke-linejoin="round"/>
<path d="M9.5 12.5H32.5" stroke="#222222" stroke-width="1.4" stroke-linejoin="round"/>
<path fill-rule="evenodd" clip-rule="evenodd" d="M28.1605 19.9103L29.3859 18.5051L30.5 18.5L29.6936 21.059L29.5557 21.5154H28.5477L29.0676 19.8692H28.9934L28.0066 21.0692H27.4496L27.2109 19.8744H27.1366L26.622 21.5257H25.614L25.7573 21.0744L26.5583 18.5154L27.6724 18.5103L28.0172 19.9103H28.1605ZM23.6514 18.5257L21.6885 21.0898L21.5452 21.5411L22.5691 21.5359L22.8715 21.0846L24.2349 21.0795L24.2561 21.5308L25.1898 21.5257L25.3331 21.0744L24.9776 18.5154L23.6514 18.5257ZM23.4073 20.3103L24.0652 19.3821H24.1129L24.1819 20.3052L23.4073 20.3103ZM21.4868 19.3462L19.8529 19.3564L19.7574 19.6539L21.7097 19.6488L21.4656 20.4231L19.5187 20.4282L19.4232 20.7308L21.3701 20.7257L21.1155 21.5411L18.1606 21.5513L19.1049 18.5411L22.0598 18.5308L21.9006 19.0436L21.4868 19.3462ZM17.7043 18.5462L15.2428 18.5513L14.2985 21.5667L15.3011 21.5616L15.6354 20.4846H16.134L16.8025 21.5564L17.646 21.5513L17.7892 21.1L17.3436 20.4795C17.6725 20.4282 17.9908 20.2693 18.15 19.7564L18.2826 19.3154C18.3038 19.2539 18.3144 19.1975 18.3197 19.141C18.325 19.0949 18.325 19.0487 18.3197 19.0128C18.2773 18.7359 18.0439 18.541 17.7043 18.5462ZM17.142 19.7513L15.8688 19.7564L15.9908 19.3667L17.264 19.3616L17.142 19.7513ZM14.6433 19.0076L14.7865 18.5563H13.8528L12.7653 19.6384H12.1074L12.447 18.5615L11.4443 18.5666L10.5 21.5769H11.5027L11.8369 20.4999L12.6804 20.4948L13.0252 21.5717L13.8422 21.5666L13.9854 21.1153L13.6141 19.9769L14.6433 19.0076Z" fill="#222222"/>
</svg>
