<svg width="40" height="35" viewBox="0 0 40 35" fill="none" xmlns="http://www.w3.org/2000/svg">
<path d="M29.4999 10.7023L29.9064 10.0721L29.4999 10.7023L31.9357 12.2733L31.6452 15.1571C31.6244 15.3636 31.6718 15.5712 31.7801 15.7483L33.2931 18.2205L31.7801 20.6927L32.4198 21.0842L31.7801 20.6927C31.6718 20.8697 31.6244 21.0773 31.6452 21.2838L31.9357 24.1677L29.4999 25.7386L29.4998 25.7386C29.3255 25.8511 29.1927 26.0176 29.1218 26.2127L28.1323 28.937L25.2561 29.2954C25.0502 29.3211 24.8583 29.4135 24.7098 29.5585L22.6363 31.5837L19.8894 30.6588C19.6927 30.5925 19.4797 30.5925 19.283 30.6588L16.5361 31.5837L14.4626 29.5585C14.3141 29.4135 14.1222 29.3211 13.9163 29.2954L11.0401 28.937L10.0506 26.2126C9.97973 26.0176 9.84695 25.8511 9.67254 25.7386L7.23672 24.1677L7.52723 21.2838C7.54803 21.0773 7.50065 20.8697 7.39231 20.6927L5.87931 18.2205L7.39231 15.7482C7.50064 15.5712 7.54803 15.3636 7.52723 15.1571L7.23672 12.2733L9.67254 10.7023L9.26605 10.0721L9.67254 10.7023C9.84695 10.5899 9.97973 10.4234 10.0506 10.2283L11.0401 7.50398L13.9163 7.14549C14.1222 7.11983 14.3141 7.02743 14.4626 6.88242L16.5361 4.85723L19.283 5.78218C19.4797 5.84841 19.6927 5.84841 19.8894 5.78218L22.6363 4.85723L24.7098 6.88242C24.8583 7.02743 25.0502 7.11983 25.2561 7.14549L28.1323 7.50398L29.1218 10.2283C29.1927 10.4234 29.3255 10.5899 29.4999 10.7023ZM31.9694 11.9384L31.9694 11.9391L31.9694 11.9384ZM33.4688 17.9334L33.4684 17.934L33.4688 17.9334ZM11.155 29.2533L11.1548 29.2527L11.155 29.2533ZM11.155 7.1876C11.1549 7.1878 11.1549 7.188 11.1548 7.1882L11.155 7.18761L10.6381 6.99984L11.155 7.1876Z" fill="white" stroke="#222222" stroke-width="1.5" stroke-linejoin="round"/>
<path d="M15.4634 22.8547C17.2734 22.8547 18.4766 21.9201 18.4766 20.5344V20.5237C18.4766 19.4709 17.7246 18.8049 16.5752 18.6975V18.6653C17.4829 18.4773 18.1919 17.8488 18.1919 16.882V16.8713C18.1919 15.6521 17.1177 14.8357 15.4473 14.8357C13.8198 14.8357 12.7295 15.7165 12.6221 17.0593L12.6167 17.1237H14.1045L14.1099 17.0754C14.1743 16.4738 14.6899 16.0818 15.4473 16.0818C16.21 16.0818 16.6558 16.4577 16.6558 17.0862V17.0969C16.6558 17.7253 16.1294 18.155 15.3184 18.155H14.4536V19.3098H15.3398C16.2744 19.3098 16.8276 19.718 16.8276 20.4592V20.4699C16.8276 21.1037 16.2905 21.5495 15.458 21.5495C14.6201 21.5495 14.0723 21.136 14.0024 20.5827L13.9917 20.5237H12.4448L12.4502 20.5935C12.5576 21.9309 13.707 22.8547 15.4634 22.8547ZM18.9761 22.7204H20.7271L22.4189 20.0027H22.4727L24.1753 22.7204H26.0229L23.5146 18.8479V18.8264L26.0552 14.9699H24.2451L22.6069 17.7629H22.5479L20.8989 14.9699H18.9922L21.4414 18.7995V18.8156L18.9761 22.7204Z" fill="#222222"/>
</svg>
